<svg width="1536" height="1024" viewBox="0 0 1536 1024" fill="none" xmlns="http://www.w3.org/2000/svg">
<rect width="1536" height="1024" fill="#006400"/>
<path d="M413.375 205.375V299.875H448.812H472.438H507.875V205.375H413.375ZM448.812 323.5H413.375H389.75V299.875V205.375V181.75H413.375H507.875H531.5V205.375V240.812H1004V205.375V181.75H1027.62H1122.12H1145.75V205.375V299.875V323.5H1122.12H1086.69V701.5H1122.12H1145.75V725.125V819.625V843.25H1122.12H1027.62H1004V819.625V784.188H531.5V819.625V843.25H507.875H413.375H389.75V819.625V725.125V701.5H413.375H448.812V323.5ZM472.438 323.5V701.5H507.875H531.5V725.125V760.562H1004V725.125V701.5H1027.62H1063.06V323.5H1027.62H1004V299.875V264.438H531.5V299.875V323.5H507.875H472.438ZM472.438 725.125H448.812H413.375V819.625H507.875V725.125H472.438ZM1122.12 299.875V205.375H1027.62V299.875H1063.06H1086.69H1122.12ZM1063.06 725.125H1027.62V819.625H1122.12V725.125H1086.69H1063.06ZM543.312 335.312H555.125H791.375H803.188V347.125V536.125V547.938H791.375H555.125H543.312V536.125V347.125V335.312ZM566.938 358.938V524.312H779.562V358.938H566.938ZM874.062 477.062H980.375H992.188V488.875V677.875V689.688H980.375H744.125H732.312V677.875V618.812V607H755.938V618.812V666.062H968.562V500.688H874.062H862.25V477.062H874.062Z" fill="#7FFF00"/>
</svg>
